<?xml version="1.0" standalone="no"?>
<!DOCTYPE svg PUBLIC "-//W3C//DTD SVG 20010904//EN"
 "http://www.w3.org/TR/2001/REC-SVG-20010904/DTD/svg10.dtd">
<svg version="1.0" xmlns="http://www.w3.org/2000/svg"
 width="600.000000pt" height="600.000000pt" viewBox="0 0 600.000000 600.000000"
 preserveAspectRatio="xMidYMid meet">
<metadata>
Created by potrace 1.11, written by Peter Selinger 2001-2013
</metadata>
<g transform="translate(0.000000,600.000000) scale(0.100000,-0.100000)"
fill="#000000" stroke="none">
<path d="M3037 5983 c3 -7 9 -13 14 -13 5 0 9 6 9 13 0 8 -6 14 -14 14 -8 0
-12 -6 -9 -14z"/>
<path d="M3130 5989 c0 -5 5 -7 10 -4 6 3 10 8 10 11 0 2 -4 4 -10 4 -5 0 -10
-5 -10 -11z"/>
<path d="M3156 5976 c-10 -15 -12 -27 -6 -31 6 -3 10 -2 10 4 0 11 39 26 59
22 20 -4 36 -23 39 -46 2 -20 2 -20 -15 1 -24 27 -52 26 -66 -3 -11 -25 -5
-39 13 -28 9 6 9 9 0 15 -9 5 -9 9 -1 14 6 4 11 3 11 -3 0 -6 7 -8 15 -5 9 4
22 -6 35 -28 11 -18 20 -28 21 -23 0 6 4 1 9 -10 7 -16 9 -17 9 -3 1 9 -6 21
-14 25 -11 6 -12 16 -6 38 l8 30 8 -30 c3 -16 11 -42 15 -57 8 -24 6 -28 -10
-28 -10 0 -26 10 -34 22 -15 22 -17 22 -33 4 -17 -17 -17 -18 4 -12 12 4 24 2
28 -4 4 -7 -30 -10 -102 -11 -59 -1 -117 -3 -128 -4 -102 -15 -193 -33 -324
-67 -84 -21 -185 -43 -224 -48 -53 -6 -81 -16 -114 -39 -37 -26 -53 -31 -103
-31 l-59 0 -35 -54 c-19 -30 -55 -73 -79 -96 -60 -55 -96 -130 -99 -207 -3
-58 -4 -60 -21 -45 -16 14 -19 14 -34 -1 -13 -13 -14 -20 -5 -29 19 -19 14
-52 -10 -63 -15 -7 -24 -20 -26 -40 -2 -16 -12 -39 -22 -50 -9 -11 -23 -36
-29 -55 -6 -20 -38 -61 -71 -94 -55 -54 -74 -86 -51 -86 5 0 14 -13 21 -29 10
-24 9 -33 -4 -53 -8 -12 -36 -72 -61 -133 -26 -60 -56 -130 -67 -155 -57 -124
-127 -327 -194 -559 -17 -60 -78 -170 -103 -185 -15 -10 -14 -43 2 -53 22 -13
26 -46 16 -133 -9 -80 -30 -140 -49 -140 -6 0 -10 -5 -10 -12 0 -22 -54 -118
-68 -118 -24 0 -40 -23 -29 -42 9 -13 7 -26 -7 -55 -10 -21 -21 -32 -23 -25
-3 7 1 19 7 27 7 8 8 15 3 15 -5 0 -15 -9 -23 -20 -8 -11 -24 -20 -35 -20 -18
-1 -18 -2 4 -14 l24 -13 -24 -17 c-21 -14 -22 -18 -9 -27 11 -8 6 -9 -20 -6
-19 3 -29 3 -22 0 6 -2 12 -11 12 -18 0 -7 -6 -16 -12 -18 -7 -3 -3 -6 10 -6
13 -1 22 5 22 14 0 8 5 15 10 15 20 0 -1 -67 -27 -87 -16 -12 -15 -13 1 -13
13 0 16 -5 11 -19 -7 -22 12 -39 21 -18 3 8 16 13 32 11 15 -2 19 -1 10 2 -26
8 -22 19 7 20 23 2 25 -2 25 -40 0 -23 -6 -48 -12 -54 -10 -10 -10 -15 2 -22
13 -9 13 -11 0 -20 -10 -6 -11 -10 -3 -10 7 0 10 -7 7 -15 -4 -8 -14 -15 -24
-15 -10 0 -20 -6 -23 -13 -3 -10 3 -12 23 -9 l27 4 7 -89 c8 -100 9 -212 1
-262 -2 -19 0 -41 5 -50 8 -13 9 -13 10 6 0 35 18 36 28 1 17 -54 22 -98 12
-98 -4 0 -11 -8 -14 -17 -3 -11 -4 -7 -3 7 2 20 -3 26 -26 28 -15 2 -27 -1
-27 -6 0 -5 -13 -7 -29 -4 -16 2 -32 -1 -36 -9 -6 -9 -3 -11 8 -6 10 3 17 2
17 -4 0 -6 9 -8 23 -3 12 3 19 3 15 -1 -3 -3 -44 -17 -90 -30 -45 -13 -73 -24
-61 -24 12 -1 59 11 105 25 58 18 83 23 86 15 2 -7 9 -17 16 -23 6 -6 10 -28
8 -48 -4 -35 -7 -38 -58 -56 -30 -10 -54 -24 -54 -31 0 -7 -8 -13 -17 -13 -16
0 -16 2 -3 11 12 8 10 9 -9 4 -27 -8 -51 -13 -67 -14 -5 -1 -19 -7 -30 -15
-17 -13 -14 -15 34 -14 29 1 48 5 41 8 -7 5 -6 9 5 13 8 3 18 2 22 -4 4 -6 10
-6 19 1 8 7 23 9 35 5 27 -8 60 3 60 20 0 11 -9 13 -32 10 l-33 -5 28 11 c52
21 57 11 57 -111 0 -64 -4 -109 -9 -106 -5 3 -7 15 -4 26 7 25 2 25 -72 -5
-34 -13 -89 -32 -121 -41 -161 -45 -192 -54 -234 -70 -41 -15 -69 -19 -180
-25 -26 -2 -21 -4 20 -8 56 -6 208 23 221 43 4 5 14 6 23 3 9 -4 16 -2 16 4 0
5 6 9 13 8 19 -4 137 24 137 32 0 4 9 5 20 2 11 -3 20 -1 20 3 0 5 10 9 23 10
12 0 41 6 65 11 35 9 42 9 42 -4 0 -9 6 -13 13 -10 17 6 22 -60 22 -261 0 -72
3 -132 7 -132 4 0 13 21 21 47 15 48 15 48 16 13 2 -83 -39 -151 -116 -192
-50 -26 -77 -108 -45 -140 9 -9 21 -8 53 1 22 7 43 10 45 8 6 -6 -139 -67
-158 -67 -8 0 -18 -4 -24 -9 -5 -5 -53 -21 -107 -35 -54 -15 -142 -48 -195
-75 -86 -43 -109 -61 -202 -157 -163 -169 -184 -187 -241 -217 -56 -29 -37 -7
22 27 20 11 29 21 21 23 -6 3 -9 10 -5 16 9 15 4 100 -8 112 -5 5 -9 14 -9 20
0 5 5 3 10 -5 8 -12 10 -10 10 8 0 13 -4 21 -8 18 -5 -3 -6 9 -4 25 7 48 -19
349 -31 349 -6 0 -6 4 0 13 6 7 7 38 2 82 -4 39 -8 96 -8 128 -1 32 -4 56 -8
54 -5 -3 -7 16 -6 41 1 26 -1 37 -3 25 -4 -15 -10 -20 -20 -16 -12 4 -13 8 -3
13 7 5 13 34 15 67 1 32 0 48 -2 36 -3 -13 -12 -23 -21 -23 -10 0 -13 -6 -9
-16 3 -8 2 -12 -4 -9 -6 3 -10 15 -10 26 0 11 3 18 8 15 4 -2 12 6 18 19 9 19
8 22 -8 17 -10 -2 -18 -7 -18 -11 0 -3 -16 -7 -36 -8 -20 -1 -67 -11 -104 -22
l-68 -21 -1 -499 0 -500 37 6 c20 3 46 12 57 19 11 8 27 14 36 14 9 0 20 7 23
16 3 9 15 14 28 12 20 -3 23 1 21 26 -1 16 -9 36 -18 46 -19 21 -49 126 -41
146 3 8 12 11 21 8 12 -5 15 -1 11 17 -7 36 -28 93 -37 99 -4 3 -13 34 -20 70
-7 36 -19 70 -26 77 -9 7 -10 13 -4 17 7 5 7 15 0 33 -7 18 -6 30 3 41 10 12
10 14 1 8 -18 -10 -16 9 1 23 22 18 27 51 9 58 -13 5 -12 8 5 14 17 7 22 17
23 46 1 94 6 124 24 141 16 15 17 15 12 0 -4 -10 1 -18 14 -21 23 -6 35 9 13
17 -9 4 -14 13 -10 22 4 10 2 13 -6 8 -7 -4 -8 -3 -4 4 10 17 26 15 26 -3 0
-8 5 -15 11 -15 5 0 7 5 4 10 -3 6 -1 10 5 10 6 0 8 -10 4 -24 -3 -15 1 -29
11 -40 10 -10 12 -16 5 -16 -8 0 -9 -7 -5 -18 7 -16 23 -160 30 -267 2 -27 4
-50 4 -50 1 0 4 -34 6 -75 3 -41 7 -111 10 -155 2 -44 2 -130 -2 -192 l-6
-111 -31 -8 c-17 -4 -36 -8 -43 -8 -6 -1 -23 -11 -37 -24 -15 -12 -31 -22 -36
-22 -6 0 -10 -4 -10 -10 0 -5 -8 -10 -19 -10 -10 0 -34 -7 -54 -15 -19 -8 -37
-12 -39 -9 -3 2 -5 -9 -6 -26 0 -16 3 -30 8 -30 20 0 119 54 114 62 -3 4 2 8
11 8 8 0 33 11 55 25 22 14 40 21 40 17 0 -7 -87 -63 -202 -131 l-28 -16 0
-228 0 -227 3000 0 3000 0 -1 788 c-1 433 -4 777 -6 764 -2 -12 -9 -20 -14
-17 -5 4 -9 2 -9 -4 0 -6 -7 -8 -15 -5 -11 5 -14 2 -9 -12 4 -11 3 -15 -2 -11
-4 4 -11 35 -14 69 l-6 60 38 -5 38 -5 0 134 c0 99 -3 136 -12 138 -16 5 -317
64 -418 82 -41 8 -98 19 -126 24 l-51 11 18 70 c23 88 24 89 63 89 41 0 185
-32 169 -37 -16 -6 -5 -33 14 -33 8 0 12 4 9 8 -2 4 -1 13 3 20 5 9 42 6 157
-13 82 -14 155 -28 162 -30 6 -2 12 1 12 9 0 8 -43 20 -132 35 -73 12 -149 27
-169 32 -35 9 -36 9 -30 51 3 24 6 57 6 73 0 17 7 35 15 42 12 10 13 15 3 32
-23 37 -16 51 25 52 l37 1 -45 10 c-51 11 -76 28 -42 28 13 0 37 8 55 17 18 9
34 18 37 18 3 1 13 5 23 10 10 4 21 5 24 1 4 -3 0 -6 -8 -6 -9 0 -15 -12 -16
-35 -1 -24 3 -35 12 -35 12 0 25 -24 31 -58 1 -7 -7 -17 -18 -23 -15 -8 -19
-8 -14 0 5 7 -1 10 -16 7 -13 -3 -26 -5 -30 -5 -5 -1 -8 -5 -8 -10 0 -9 135
-43 218 -55 l42 -6 0 54 c0 35 -5 58 -15 66 -8 7 -15 19 -15 27 0 7 7 16 15
19 8 4 15 17 15 31 0 17 -4 22 -12 17 -7 -5 -20 -9 -30 -9 -13 -1 -15 2 -7 16
5 10 19 24 31 30 11 6 16 14 11 18 -6 3 -8 17 -5 31 2 14 6 153 9 310 3 229 2
283 -8 273 -20 -20 -27 -16 -26 15 1 15 0 50 -2 77 l-3 50 -9 -55 c-5 -30 -14
-59 -20 -65 -7 -7 -10 -5 -9 5 1 8 2 29 1 45 -1 23 -3 27 -11 15 -7 -11 -10
-7 -11 20 l-1 35 -9 -40 c-5 -22 -11 -47 -13 -55 -3 -8 -5 -24 -6 -35 -3 -26
-19 36 -25 94 -5 48 -14 67 -16 33 -1 -12 -2 -31 -3 -41 0 -11 -4 -23 -8 -27
-4 -4 -5 -18 -2 -30 8 -31 -12 -32 -22 -1 -5 12 -7 25 -6 30 1 4 -2 7 -7 7 -5
0 -11 14 -14 30 -8 37 -37 41 -37 5 0 -14 -9 -34 -19 -44 -11 -11 -16 -23 -13
-27 4 -5 -1 -3 -10 4 -9 8 -17 21 -17 30 0 25 -25 92 -34 92 -5 0 -8 -10 -7
-22 3 -36 0 -44 -10 -28 -8 12 -10 10 -10 -8 0 -13 -4 -21 -9 -18 -11 7 -25
-11 -39 -49 l-10 -30 -1 35 c-2 45 -21 79 -21 36 0 -47 -10 -23 -19 45 -6 46
-9 54 -10 27 -1 -46 -21 -51 -22 -5 l-1 32 -8 -38 c-4 -20 -9 -40 -12 -42 -3
-3 -16 15 -29 39 -13 25 -26 40 -30 34 -4 -6 -10 -2 -14 12 l-7 22 -15 -21
c-8 -12 -19 -19 -24 -16 -5 4 -9 -1 -9 -11 0 -13 -3 -14 -15 -4 -11 9 -18 10
-29 1 -11 -9 -15 -5 -20 24 -5 26 -12 35 -27 35 -15 0 -19 6 -17 23 2 17 -2
22 -20 22 -52 1 -96 121 -107 286 -2 26 -20 60 -70 128 -14 19 -25 39 -25 44
0 7 164 8 500 4 l500 -7 0 116 c0 75 -4 113 -10 109 -6 -4 -8 -11 -5 -16 11
-17 -14 -9 -32 10 -33 34 -58 35 -87 1 -14 -18 -26 -37 -26 -45 0 -22 -26 -24
-57 -5 -20 12 -35 15 -44 9 -20 -13 -39 -11 -39 4 0 41 -23 87 -45 93 -13 3
-31 16 -41 29 -15 20 -21 21 -53 13 -20 -6 -41 -14 -47 -19 -12 -10 -49 -150
-53 -203 -1 -5 -103 -7 -247 -3 -195 5 -251 9 -269 21 -32 21 -86 118 -92 166
-7 50 13 125 44 167 23 31 23 34 7 58 -10 15 -14 36 -11 52 3 16 -2 42 -13 63
-10 19 -23 53 -29 76 -6 22 -24 52 -41 67 -16 15 -30 32 -30 37 0 6 -6 10 -14
10 -7 0 -35 26 -62 58 -27 31 -51 59 -54 62 -9 8 -71 105 -125 195 -50 84
-151 210 -222 280 -45 43 -55 71 -26 77 11 2 0 12 -31 27 -26 14 -57 36 -69
51 -66 78 -186 164 -322 231 -78 38 -145 69 -151 69 -6 0 -46 20 -90 45 -43
25 -92 49 -107 52 -33 7 -44 27 -27 48 8 9 9 32 5 70 l-7 56 -129 -2 c-74 0
-127 -5 -123 -10 3 -5 0 -9 -5 -9 -6 0 -11 5 -11 10 0 20 -38 10 -54 -14z
m139 4 c3 -5 2 -10 -4 -10 -5 0 -13 5 -16 10 -3 6 -2 10 4 10 5 0 13 -4 16
-10z m5 -35 c7 -9 8 -15 2 -15 -5 0 -12 7 -16 15 -3 8 -4 15 -2 15 2 0 9 -7
16 -15z m20 -35 c0 -5 -4 -10 -10 -10 -5 0 -10 5 -10 10 0 6 5 10 10 10 6 0
10 -4 10 -10z m10 -68 c0 -15 -2 -15 -10 -2 -13 20 -13 33 0 25 6 -3 10 -14
10 -23z m-415 -661 c30 -4 56 -4 57 0 2 4 21 11 43 14 l40 8 -24 -27 c-14 -14
-19 -26 -13 -26 7 0 12 -6 12 -13 0 -8 14 -12 41 -12 30 0 43 -4 51 -18 7 -15
6 -22 -3 -28 -8 -5 -10 -9 -5 -9 5 0 3 -7 -4 -15 -7 -9 -10 -18 -6 -22 3 -4
13 3 22 15 15 22 64 31 64 11 0 -18 25 -37 61 -46 36 -9 54 -9 137 2 44 7 52
5 52 -9 0 -9 -7 -16 -15 -16 -8 0 -15 -4 -15 -10 0 -5 -6 -10 -13 -10 -38 0
-71 -63 -40 -75 9 -3 12 -12 8 -25 -5 -14 -2 -20 9 -20 9 0 16 5 16 10 0 6 9
10 19 10 11 0 22 9 26 20 4 12 19 22 43 27 47 9 71 6 102 -15 14 -8 35 -16 47
-17 13 0 29 -9 37 -20 9 -11 16 -15 16 -9 0 22 73 -9 134 -56 65 -51 186 -162
186 -171 0 -4 18 -34 40 -67 22 -33 40 -64 40 -70 0 -6 4 -12 9 -14 15 -6 61
-80 61 -99 0 -11 5 -19 10 -19 15 0 12 -139 -4 -185 -8 -22 -22 -42 -31 -43
-9 -2 -44 3 -78 12 -141 35 -181 38 -405 32 -193 -5 -227 -3 -248 10 -48 32
-64 -14 -66 -196 -1 -47 2 -57 22 -80 22 -25 27 -95 11 -162 -5 -20 -6 -40 -3
-43 11 -10 14 -39 19 -160 4 -93 1 -137 -13 -198 -15 -65 -16 -87 -6 -138 9
-51 9 -64 -3 -76 -20 -19 -19 -43 1 -43 19 0 10 -39 -13 -57 -15 -12 -129 -12
-198 0 -39 6 -73 -7 -112 -46 -63 -60 -33 -71 97 -33 61 18 156 21 165 6 4 -6
-6 -10 -23 -10 -50 0 -92 -12 -92 -26 0 -22 35 -34 95 -34 61 0 60 1 70 -71 5
-40 9 -46 28 -45 12 1 21 7 20 13 -6 28 29 85 58 95 52 18 74 83 53 160 -8 29
-21 91 -29 138 -14 76 -14 89 1 140 21 73 62 148 85 155 11 4 19 15 19 26 0
14 7 19 25 19 14 0 25 5 25 10 0 7 13 8 34 5 40 -8 55 8 26 28 -18 13 -19 15
-5 21 9 3 35 2 58 -4 23 -5 59 -12 80 -15 27 -4 37 -11 37 -24 0 -24 17 -37
57 -45 53 -12 108 10 140 53 15 22 44 47 63 57 45 24 60 39 60 58 0 9 4 16 10
16 5 0 12 11 16 24 10 41 42 11 69 -64 18 -51 35 -120 35 -142 0 -28 -44 -127
-61 -138 -5 -4 -12 -20 -15 -38 -5 -24 -3 -32 7 -32 9 0 10 -3 3 -8 -6 -4 -14
-27 -18 -52 -9 -62 -28 -110 -42 -110 -7 0 -14 -29 -18 -77 -13 -153 -22 -191
-53 -227 -13 -15 -23 -31 -23 -37 0 -6 -5 -20 -12 -32 -7 -12 -13 -28 -14 -35
-1 -8 -8 -21 -16 -30 -7 -10 -22 -34 -32 -54 -11 -21 -23 -38 -28 -38 -4 0 -8
-6 -8 -14 0 -7 -7 -19 -15 -26 -16 -13 -19 -98 -3 -117 5 -6 13 -40 18 -75 9
-62 4 -94 -23 -158 -6 -14 -11 -30 -12 -36 -1 -16 -57 -96 -77 -112 -10 -7
-18 -21 -18 -30 0 -13 -2 -14 -9 -4 -7 11 -11 11 -22 -1 -8 -7 -24 -19 -37
-26 -14 -7 -22 -21 -22 -37 0 -26 -20 -54 -38 -54 -6 0 -50 -39 -100 -87 -112
-110 -139 -133 -160 -133 -10 0 -35 -9 -57 -18 -44 -20 -69 -17 -110 13 -55
41 -65 53 -65 80 0 16 -3 26 -6 22 -3 -3 -6 -22 -6 -41 0 -19 -6 -40 -13 -46
-9 -8 -9 -18 -1 -45 6 -19 14 -35 19 -35 4 0 3 -8 -2 -18 -7 -13 -6 -23 1 -30
9 -9 8 -12 -3 -13 -7 0 -23 -2 -34 -5 -52 -10 -345 35 -370 58 -8 7 39 3 73
-8 6 -2 12 0 12 5 0 5 -15 12 -33 15 -19 4 -52 24 -78 49 -57 53 -130 99 -204
126 -66 25 -134 70 -135 89 0 6 -4 12 -9 12 -8 0 -52 54 -131 160 -56 75 -97
164 -105 227 -8 66 -36 164 -64 225 -11 26 -21 49 -21 52 0 3 -22 43 -50 90
-27 47 -50 87 -50 90 0 3 -11 30 -25 59 -25 55 -59 166 -90 292 -10 39 -22 75
-27 80 -7 7 -8 1 -4 -17 6 -27 -8 -40 -16 -15 -23 69 21 625 67 844 14 68 30
173 34 235 4 62 9 98 10 81 2 -54 18 -37 18 20 1 147 2 157 18 151 10 -4 15 1
16 15 1 12 3 26 4 31 1 6 3 19 4 31 0 11 5 18 10 15 5 -3 23 23 39 58 18 39
43 74 65 90 20 15 41 43 47 62 8 23 20 36 36 40 13 3 24 10 24 15 0 5 6 9 14
9 8 0 16 3 18 8 5 11 105 76 191 122 42 23 111 50 151 60 41 11 101 33 132 50
32 17 75 32 95 33 33 2 46 17 15 17 -14 0 -26 29 -26 63 0 10 5 15 11 12 5 -4
35 -10 64 -14z m2051 -1337 c24 -19 44 -41 44 -48 0 -7 9 -25 20 -39 11 -14
19 -29 18 -34 -1 -4 8 -40 21 -79 36 -112 18 -159 -30 -81 -15 23 -32 59 -38
79 -7 21 -17 40 -22 43 -5 4 -9 21 -9 38 0 18 -11 48 -23 67 -62 92 -61 90
-42 90 10 0 38 -16 61 -36z m-1219 -60 c-3 -3 -12 -4 -19 -1 -8 3 -5 6 6 6 11
1 17 -2 13 -5z m-52 -96 c16 -15 43 -30 59 -34 l30 -6 -28 -15 c-31 -16 -69
-11 -133 20 -55 27 -66 62 -28 95 l27 23 21 -28 c12 -16 35 -40 52 -55z m1532
-350 c-3 -8 -6 -5 -6 6 -1 11 2 17 5 13 3 -3 4 -12 1 -19z m-3491 -165 c16
-32 32 -60 35 -63 4 -3 16 -25 29 -50 17 -34 22 -62 21 -115 -1 -86 11 -132
44 -167 22 -24 24 -31 14 -50 -6 -13 -20 -30 -32 -39 l-20 -16 24 -48 c16 -31
35 -53 59 -65 49 -25 53 -32 85 -130 15 -47 30 -89 34 -95 3 -5 6 -14 7 -20 6
-29 68 -183 88 -219 13 -23 29 -60 36 -84 7 -23 29 -60 48 -83 49 -57 33 -60
-21 -4 -74 76 -151 238 -212 450 -39 134 -40 135 -78 135 -18 0 -42 7 -54 15
-33 23 -63 127 -73 255 -14 168 -27 258 -50 343 -32 122 -27 137 16 50z m-616
-113 c0 -11 -4 -20 -8 -20 -4 0 -8 9 -9 20 -1 11 2 20 8 20 5 0 9 -9 9 -20z
m31 -97 c-12 -20 -14 -14 -5 12 4 9 9 14 11 11 3 -2 0 -13 -6 -23z m4504 -253
c171 -10 284 -27 286 -41 1 -5 2 -12 4 -16 1 -5 5 -26 10 -48 4 -22 13 -43 19
-47 8 -5 7 -8 -2 -8 -7 0 -10 -5 -6 -11 4 -8 0 -8 -15 0 -18 10 -21 9 -21 -7
0 -15 -7 -19 -36 -17 -19 1 -40 7 -47 14 -6 6 -25 11 -41 11 -17 1 -61 7 -99
14 -67 13 -67 13 -73 -11 -4 -12 -12 -23 -19 -23 -7 0 -16 -6 -19 -12 -3 -7
-3 -3 0 10 4 17 1 22 -16 22 -11 0 -33 11 -48 25 -15 14 -32 25 -39 25 -7 0
-13 9 -13 20 0 16 5 19 30 14 17 -4 30 -4 30 -1 0 14 -63 77 -76 77 -8 0 -14
5 -14 10 0 12 6 12 205 0z m-120 -221 c19 -17 35 -40 35 -51 0 -28 -32 -19
-48 15 -7 15 -16 27 -20 27 -4 0 -8 9 -9 20 -2 26 0 26 42 -11z m-86 -136 c-5
-29 2 -36 20 -19 17 16 19 15 35 -9 9 -14 21 -25 26 -25 12 0 9 22 -5 33 -5 4
1 7 15 5 16 -2 26 -10 28 -23 2 -11 10 -27 17 -35 7 -8 15 -27 19 -42 3 -16
11 -28 17 -28 6 0 4 -7 -5 -15 -13 -13 -25 -14 -78 -6 -78 13 -102 35 -100 91
1 23 -3 50 -8 61 -8 15 -7 19 5 19 8 0 14 -3 14 -7z m507 -30 c-7 -7 -26 7
-26 19 0 6 6 6 15 -2 9 -7 13 -15 11 -17z m-4706 -97 c0 -8 -4 -17 -8 -20 -4
-2 -8 4 -8 15 0 10 4 19 8 19 4 0 8 -6 8 -14z m4146 -55 c-19 -7 -19 -8 -1
-14 16 -7 16 -9 2 -25 -8 -9 -18 -34 -22 -54 -5 -25 -13 -38 -24 -39 -13 0
-12 -2 4 -10 17 -8 17 -9 -5 -4 -14 2 -30 5 -36 5 -6 0 -11 6 -11 13 0 6 -4
20 -8 30 -8 18 9 24 20 7 11 -17 24 -11 38 18 18 34 12 52 -16 53 -16 0 -13 4
13 13 19 8 42 14 50 14 9 0 7 -2 -4 -7z m-4064 -156 c0 -72 -4 -121 -11 -128
-8 -8 -11 11 -11 68 0 85 10 188 17 181 3 -2 5 -57 5 -121z m-44 -90 c1 -25 4
-50 7 -55 9 -14 -6 -150 -16 -150 -5 0 -9 56 -9 125 0 69 4 125 9 125 5 0 9
-20 9 -45z m-88 -35 c0 -5 -8 -10 -17 -10 -15 0 -16 2 -3 10 19 12 20 12 20 0z
m4453 -207 c-7 -2 -19 -2 -25 0 -7 3 -2 5 12 5 14 0 19 -2 13 -5z m110 -20
c-7 -2 -21 -2 -30 0 -10 3 -4 5 12 5 17 0 24 -2 18 -5z m-5576 -25 c-3 -8 -6
-5 -6 6 -1 11 2 17 5 13 3 -3 4 -12 1 -19z m-50 6 c-3 -3 -12 -4 -19 -1 -8 3
-5 6 6 6 11 1 17 -2 13 -5z m5627 -6 c-2 -3 1 -8 8 -10 7 -3 5 -7 -6 -11 -10
-4 -15 -3 -11 3 3 6 -5 10 -19 10 -14 0 -27 3 -29 8 -3 4 10 7 28 7 18 0 31
-3 29 -7z m72 -15 c-10 -19 -12 -20 -18 -5 -11 27 -9 31 10 29 15 -1 17 -5 8
-24z m-5756 7 c-20 -13 -43 -13 -35 0 3 6 16 10 28 10 18 0 19 -2 7 -10z
m1525 -193 c12 -2 31 -24 47 -53 16 -30 42 -59 67 -74 53 -33 53 -48 0 -18
-27 15 -51 39 -68 71 -21 38 -33 49 -65 58 -41 11 -107 8 -140 -6 -14 -6 -17
-5 -12 4 18 29 76 35 171 18z m-1498 -19 c-3 -8 -6 -5 -6 6 -1 11 2 17 5 13 3
-3 4 -12 1 -19z m190 -340 c-3 -8 -6 -5 -6 6 -1 11 2 17 5 13 3 -3 4 -12 1
-19z m-247 -548 c0 -5 -7 -7 -15 -4 -8 4 -15 8 -15 10 0 2 7 4 15 4 8 0 15 -4
15 -10z"/>
<path d="M2305 4127 c-118 -27 -138 -39 -212 -126 -59 -69 -77 -103 -86 -163
-6 -42 4 -50 57 -41 33 5 36 9 36 38 0 36 66 127 117 162 69 47 193 52 333 13
36 -10 106 -21 157 -24 l92 -6 31 31 c17 18 34 44 37 60 4 23 1 30 -18 38 -46
18 -155 31 -299 36 -126 4 -158 1 -245 -18z"/>
<path d="M1967 3945 c-4 -22 -11 -59 -16 -83 -5 -24 -5 -45 0 -48 16 -10 30
48 27 110 -3 60 -3 60 -11 21z"/>
<path d="M2405 3891 c-49 -22 -97 -41 -106 -44 -9 -3 -19 -21 -23 -41 -4 -19
-13 -39 -20 -43 -7 -5 -20 -20 -30 -34 -13 -21 -14 -32 -6 -53 15 -41 12 -51
-10 -31 -26 24 -39 11 -15 -15 13 -14 14 -20 5 -20 -26 0 2 -15 31 -16 20 -1
33 5 40 17 5 10 27 28 49 39 25 13 47 34 59 58 18 34 38 56 100 107 l23 20 -7
-35 c-18 -79 10 -126 83 -140 78 -14 137 28 152 107 6 32 8 35 15 18 5 -11 18
-36 30 -55 12 -19 26 -46 30 -60 4 -14 13 -28 19 -32 19 -13 56 -9 56 6 0 18
-44 99 -78 144 l-27 36 69 -49 c57 -40 67 -45 61 -26 -3 12 -17 33 -29 46 -13
13 -31 42 -41 65 -16 35 -22 40 -52 40 -18 0 -50 7 -70 15 -23 10 -68 15 -127
15 -83 0 -99 -4 -181 -39z m233 -128 c2 -8 -6 -13 -22 -13 -13 0 -36 -4 -50
-10 -20 -7 -26 -6 -26 5 0 31 88 47 98 18z"/>
<path d="M2350 3580 c20 -13 103 -13 95 0 -3 6 -30 10 -58 10 -37 0 -48 -3
-37 -10z"/>
<path d="M2373 3510 c-45 -3 -85 -8 -88 -12 -9 -8 77 -28 123 -28 39 0 172 36
172 46 0 5 -54 4 -207 -6z"/>
<path d="M2875 2997 c-8 -43 16 -104 47 -116 48 -19 108 -34 114 -29 2 3 -14
19 -38 36 -63 45 -77 62 -90 104 -14 47 -25 48 -33 5z"/>
<path d="M3375 2740 c4 -6 11 -8 16 -5 14 9 11 15 -7 15 -8 0 -12 -5 -9 -10z"/>
<path d="M3410 2728 c0 -9 -6 -18 -12 -21 -7 -2 -10 -8 -5 -13 4 -4 15 0 24 9
13 13 15 20 5 29 -9 9 -12 8 -12 -4z"/>
<path d="M3417 2682 c-13 -3 -18 -10 -15 -26 9 -46 -58 -69 -202 -71 -102 -1
-107 -2 -190 -44 -75 -37 -197 -107 -299 -171 -43 -28 -29 -43 24 -29 41 12
120 6 139 -10 6 -5 31 -15 56 -22 25 -7 51 -17 58 -22 8 -6 17 -5 27 3 12 10
19 10 27 2 8 -8 3 -18 -17 -36 -16 -15 -26 -28 -24 -30 2 -2 43 -6 90 -10 48
-3 100 -11 115 -17 16 -6 50 -8 76 -5 46 6 75 -8 48 -24 -6 -4 -13 -26 -14
-48 -1 -23 -5 -44 -9 -48 -4 -4 -7 -25 -7 -46 0 -31 3 -38 20 -38 18 0 25 16
21 43 0 4 5 7 12 7 8 0 22 9 32 20 10 11 24 20 32 20 7 0 13 6 13 14 0 8 16
17 38 21 51 9 70 29 78 83 7 48 72 152 83 134 10 -16 53 -6 72 17 15 19 21 20
38 10 44 -28 68 43 36 105 -8 15 -15 33 -15 40 -1 6 -21 26 -46 44 -45 33 -46
34 -84 18 -41 -16 -92 -13 -118 8 -33 26 -71 70 -66 78 9 14 -10 34 -29 30z
m23 -22 c0 -5 -4 -10 -10 -10 -5 0 -10 5 -10 10 0 6 5 10 10 10 6 0 10 -4 10
-10z m-256 -255 c-18 -15 -18 -15 11 -14 86 5 143 -1 149 -17 13 -33 -21 -52
-104 -59 -64 -6 -85 -4 -115 11 -36 17 -73 59 -62 71 4 3 32 9 64 13 32 4 62
8 67 9 6 0 1 -6 -10 -14z"/>
<path d="M3220 1828 c0 -23 2 -22 22 1 16 18 15 20 -3 18 -11 -1 -19 -9 -19
-19z"/>
<path d="M5555 2580 c3 -5 8 -10 11 -10 2 0 4 5 4 10 0 6 -5 10 -11 10 -5 0
-7 -4 -4 -10z"/>
<path d="M2845 5960 c-3 -5 -1 -10 4 -10 6 0 11 5 11 10 0 6 -2 10 -4 10 -3 0
-8 -4 -11 -10z"/>
<path d="M3110 5960 c0 -5 5 -10 11 -10 5 0 7 5 4 10 -3 6 -8 10 -11 10 -2 0
-4 -4 -4 -10z"/>
<path d="M2873 5924 c-17 -17 -16 -24 1 -24 15 0 30 27 18 34 -4 2 -13 -2 -19
-10z"/>
<path d="M2957 5933 c-10 -10 -8 -23 4 -23 5 0 8 4 5 9 -4 5 0 12 6 14 7 3 8
6 2 6 -6 1 -14 -2 -17 -6z"/>
<path d="M3037 5893 c-13 -12 -7 -23 11 -22 10 0 12 3 4 6 -6 2 -10 9 -6 14 6
10 0 12 -9 2z"/>
<path d="M3210 5889 c0 -5 5 -7 10 -4 6 3 10 8 10 11 0 2 -4 4 -10 4 -5 0 -10
-5 -10 -11z"/>
<path d="M5716 5779 c-11 -55 -7 -111 7 -107 7 3 13 29 15 71 3 69 -11 91 -22
36z"/>
<path d="M5920 4638 c-7 -19 -30 -298 -30 -376 0 -20 5 -22 55 -22 l55 0 0
210 0 210 -35 0 c-27 0 -38 -5 -45 -22z"/>
<path d="M1126 3609 c-11 -10 -27 -19 -37 -19 -10 0 -20 -4 -23 -9 -3 -4 -32
-18 -65 -30 -57 -20 -89 -51 -54 -51 28 0 93 23 93 33 0 5 7 7 15 3 8 -3 28 0
43 6 28 13 82 65 82 80 0 15 -35 7 -54 -13z"/>
<path d="M867 3498 c-9 -25 -7 -32 7 -34 16 -2 29 22 20 37 -8 13 -21 11 -27
-3z"/>
<path d="M1090 3255 c0 -20 32 -36 51 -24 12 7 11 9 -2 9 -9 0 -19 7 -23 15
-7 19 -26 20 -26 0z"/>
<path d="M1030 3212 c1 -23 20 -34 49 -27 34 7 44 -9 11 -18 -11 -3 -20 -10
-20 -16 0 -15 29 0 54 27 10 12 24 18 34 15 10 -4 13 -2 8 5 -10 16 -33 15
-39 0 -3 -10 -7 -10 -19 0 -11 9 -18 10 -23 2 -3 -5 -13 -10 -21 -10 -8 0 -13
4 -10 9 3 5 -1 11 -9 15 -8 3 -15 2 -15 -2z"/>
<path d="M1030 3120 c-13 -8 -12 -10 3 -10 10 0 16 -4 12 -9 -10 -18 17 -23
33 -7 15 15 15 16 -5 16 -12 0 -23 4 -25 10 -2 6 -8 6 -18 0z"/>
<path d="M915 3080 c-3 -5 -1 -10 4 -10 6 0 11 5 11 10 0 6 -2 10 -4 10 -3 0
-8 -4 -11 -10z"/>
<path d="M1010 3010 c0 -5 5 -10 10 -10 6 0 10 5 10 10 0 6 -4 10 -10 10 -5 0
-10 -4 -10 -10z"/>
<path d="M1044 2976 c-10 -8 -16 -17 -13 -20 3 -3 14 1 25 8 10 8 16 17 13 20
-3 3 -14 -1 -25 -8z"/>
<path d="M928 2963 c7 -3 16 -2 19 1 4 3 -2 6 -13 5 -11 0 -14 -3 -6 -6z"/>
<path d="M1116 2847 c3 -10 9 -15 12 -12 3 3 0 11 -7 18 -10 9 -11 8 -5 -6z"/>
<path d="M1067 2843 c-12 -11 -8 -23 9 -23 8 0 13 4 10 9 -4 5 0 12 6 14 9 4
8 6 -3 6 -9 1 -19 -2 -22 -6z"/>
<path d="M1125 2720 c-3 -5 -12 -7 -20 -4 -7 3 -22 1 -32 -5 -15 -9 -13 -10
11 -5 23 6 27 4 21 -7 -6 -10 -2 -9 11 2 10 9 26 19 34 22 12 4 12 6 -2 6 -9
1 -19 -3 -23 -9z"/>
<path d="M1093 2608 c2 -7 10 -12 16 -10 6 1 11 -3 11 -9 0 -6 -9 -8 -22 -4
-36 11 -43 11 -40 -2 3 -18 -9 -16 -24 5 -12 16 -13 16 -14 0 0 -20 38 -34 53
-19 8 8 16 6 29 -6 10 -9 18 -20 18 -25 0 -5 -7 -2 -16 7 -14 13 -19 14 -25 3
-5 -7 -9 -17 -9 -23 0 -5 5 -3 10 5 7 11 10 12 10 2 0 -8 -10 -22 -22 -31
l-21 -18 33 -1 c22 0 29 2 21 7 -11 7 -11 10 0 17 8 5 18 9 24 9 13 0 7 76 -7
93 -6 6 -15 12 -20 12 -5 0 -8 -6 -5 -12z"/>
<path d="M1141 2554 c0 -11 3 -14 6 -6 3 7 2 16 -1 19 -3 4 -6 -2 -5 -13z"/>
<path d="M1013 2465 c0 -8 4 -15 9 -15 4 0 8 7 8 15 0 8 -4 15 -8 15 -5 0 -9
-7 -9 -15z"/>
<path d="M1070 2455 c-9 -10 -9 -15 -1 -15 6 0 11 -9 11 -20 0 -11 4 -20 9
-20 10 0 9 26 -2 36 -4 4 -2 13 4 21 7 8 8 13 1 13 -5 0 -15 -7 -22 -15z"/>
<path d="M1050 2420 c0 -5 5 -10 10 -10 6 0 10 5 10 10 0 6 -4 10 -10 10 -5 0
-10 -4 -10 -10z"/>
<path d="M5768 2403 c7 -3 16 -2 19 1 4 3 -2 6 -13 5 -11 0 -14 -3 -6 -6z"/>
<path d="M1060 2390 c0 -5 10 -10 23 -10 18 0 19 2 7 10 -19 13 -30 13 -30 0z"/>
<path d="M1069 2367 c-1 -4 -2 -10 -3 -14 -1 -5 -4 -13 -8 -19 -8 -13 0 -24
16 -24 6 0 4 5 -4 10 -13 8 -13 10 2 10 9 0 15 7 14 15 -2 16 -15 32 -17 22z"/>
<path d="M118 2353 c7 -3 16 -2 19 1 4 3 -2 6 -13 5 -11 0 -14 -3 -6 -6z"/>
<path d="M1020 2310 c20 -13 33 -13 25 0 -3 6 -14 10 -23 10 -15 0 -15 -2 -2
-10z"/>
<path d="M1045 2250 c-18 -8 -17 -9 8 -9 15 -1 27 4 27 9 0 12 -8 12 -35 0z"/>
<path d="M55 2231 c-19 -8 -19 -8 1 -19 17 -9 20 -7 20 9 0 10 0 19 -1 18 0 0
-9 -4 -20 -8z"/>
<path d="M30 2185 c-8 -9 -8 -15 -2 -15 12 0 26 19 19 26 -2 2 -10 -2 -17 -11z"/>
<path d="M168 2177 c-2 -12 2 -33 9 -47 l13 -25 0 28 c0 18 4 26 11 21 8 -5 8
-1 0 14 -17 31 -28 34 -33 9z"/>
<path d="M1177 2174 c-20 -27 -5 -33 20 -8 9 9 12 19 7 24 -5 5 -17 -2 -27
-16z"/>
<path d="M57 2168 c-10 -5 -26 -6 -37 -3 -17 5 -20 2 -20 -20 0 -21 4 -26 16
-21 9 3 18 6 20 6 3 0 2 5 -1 10 -8 14 31 13 58 -2 19 -10 20 -9 10 4 -7 8
-10 17 -7 20 10 11 -22 16 -39 6z"/>
<path d="M958 2173 c7 -3 16 -2 19 1 4 3 -2 6 -13 5 -11 0 -14 -3 -6 -6z"/>
<path d="M130 2150 c0 -5 5 -10 10 -10 6 0 10 5 10 10 0 6 -4 10 -10 10 -5 0
-10 -4 -10 -10z"/>
<path d="M310 2146 c0 -10 4 -15 9 -11 5 3 11 -3 13 -12 3 -14 5 -13 10 5 4
13 4 21 1 18 -4 -3 -12 -1 -20 5 -10 9 -13 8 -13 -5z"/>
<path d="M1027 2123 c-54 -14 -96 -27 -94 -29 5 -5 207 43 215 51 9 9 -21 4
-121 -22z"/>
<path d="M212 2115 c-15 -32 -15 -45 -1 -25 8 12 9 10 4 -7 -4 -14 -2 -23 4
-23 6 0 11 18 11 40 0 47 -3 49 -18 15z"/>
<path d="M14 2108 c-3 -4 11 -8 30 -8 20 0 36 2 36 4 0 8 -61 12 -66 4z"/>
<path d="M116 2105 c5 -12 -3 -15 -35 -15 -23 0 -41 -4 -41 -10 0 -5 -7 -10
-16 -10 -8 0 -12 5 -9 10 3 6 1 10 -5 10 -7 0 -9 -7 -6 -16 3 -9 6 -18 6 -20
0 -2 7 -4 15 -4 8 0 15 -5 15 -11 0 -6 -8 -9 -18 -7 -17 5 -19 -5 -20 -153 -2
-173 -5 -165 58 -153 23 5 28 9 18 16 -8 6 -1 7 22 3 22 -4 30 -3 22 3 -10 7
-10 11 2 21 12 10 15 9 19 -6 4 -16 5 -16 6 2 1 15 3 17 10 6 7 -11 15 -11 47
5 38 19 39 20 37 69 -1 28 -2 70 -2 94 -1 35 -4 41 -14 32 -11 -8 -19 -5 -37
14 -17 18 -19 25 -9 25 8 0 19 -4 25 -10 6 -6 15 -6 24 0 13 9 13 11 0 20 -10
6 -11 10 -2 10 6 0 12 5 12 10 0 6 -7 10 -15 10 -8 0 -21 12 -28 26 -9 17 -17
23 -21 15 -13 -20 -38 -13 -31 9 5 16 2 20 -14 20 -14 0 -19 -5 -15 -15z m-46
-40 c-7 -9 -15 -13 -19 -10 -3 3 1 10 9 15 21 14 24 12 10 -5z m130 -32 c0 -7
-4 -13 -10 -13 -5 0 -10 3 -10 8 0 4 -3 18 -6 32 -6 24 -6 25 9 5 9 -11 17
-26 17 -32z m-90 -2 c0 -5 -7 -11 -15 -15 -15 -5 -20 5 -8 17 9 10 23 9 23 -2z
m51 -98 c13 -16 12 -17 -3 -4 -10 7 -18 15 -18 17 0 8 8 3 21 -13z m-91 -33
c0 -5 -4 -10 -10 -10 -5 0 -10 5 -10 10 0 6 5 10 10 10 6 0 10 -4 10 -10z m30
-128 c0 -5 -7 -9 -15 -9 -8 0 -15 4 -15 9 0 4 7 8 15 8 8 0 15 -4 15 -8z"/>
<path d="M831 2070 c-67 -20 -96 -36 -46 -25 48 10 135 37 135 41 0 7 -24 3
-89 -16z"/>
<path d="M5648 2083 c-3 -4 -2 -19 2 -33 l6 -25 7 25 c6 24 -6 51 -15 33z"/>
<path d="M313 2073 c-15 -6 -17 -43 -3 -43 12 0 24 25 18 38 -1 5 -9 7 -15 5z"/>
<path d="M5586 2055 c4 -8 13 -15 21 -15 13 0 13 3 3 15 -7 8 -16 15 -21 15
-5 0 -6 -7 -3 -15z"/>
<path d="M395 2040 c-3 -6 1 -7 9 -4 18 7 21 14 7 14 -6 0 -13 -4 -16 -10z"/>
<path d="M435 2030 c3 -5 8 -10 11 -10 2 0 4 5 4 10 0 6 -5 10 -11 10 -5 0 -7
-4 -4 -10z"/>
<path d="M653 2023 c-13 -2 -23 -9 -23 -14 0 -12 2 -12 41 6 33 14 27 17 -18
8z"/>
<path d="M921 2019 c-18 -6 -31 -12 -29 -15 8 -7 68 8 68 17 0 5 -1 9 -2 8 -2
0 -18 -5 -37 -10z"/>
<path d="M490 2010 c19 -4 43 -11 53 -15 9 -4 17 -3 17 3 0 10 -49 23 -84 21
-12 -1 -6 -4 14 -9z"/>
<path d="M575 2000 c-8 -13 15 -13 35 0 12 8 11 10 -7 10 -12 0 -25 -4 -28
-10z"/>
<path d="M840 1994 c-33 -13 -33 -14 -5 -8 17 3 34 10 40 15 11 11 8 11 -35
-7z"/>
<path d="M377 1958 c-9 -33 -8 -45 2 -29 7 11 16 11 57 -3 26 -9 50 -14 52
-11 6 5 -44 25 -64 25 -8 0 -14 5 -14 11 0 15 83 -11 95 -30 7 -12 83 -12 91
0 3 5 -14 6 -38 4 -31 -4 -38 -2 -23 4 19 9 19 10 -3 10 -12 1 -47 10 -77 20
-38 14 -55 16 -55 8 0 -8 -3 -7 -9 1 -6 10 -10 8 -14 -10z"/>
<path d="M755 1970 c-13 -5 -14 -9 -5 -9 8 0 24 4 35 9 13 5 14 9 5 9 -8 0
-24 -4 -35 -9z"/>
<path d="M1150 1966 c-14 -8 -44 -17 -67 -21 -34 -5 -43 -11 -43 -26 0 -11 -5
-17 -10 -14 -6 4 -7 11 -4 17 5 8 1 9 -11 5 -10 -4 -37 -12 -61 -18 -29 -8
-44 -17 -44 -28 0 -13 -2 -13 -9 -2 -6 9 -16 11 -27 7 -16 -6 -16 -8 -4 -16 8
-6 10 -10 5 -10 -6 0 -16 5 -21 10 -9 9 -53 -1 -124 -27 -8 -3 -23 -8 -33 -10
-28 -5 -57 -22 -57 -34 0 -6 7 -6 20 1 11 6 20 7 20 3 0 -4 5 -1 11 7 8 11 12
12 16 3 5 -14 43 -18 43 -5 0 4 -6 14 -12 21 -11 10 -8 10 15 2 38 -15 80 -14
71 0 -4 8 1 9 17 5 l24 -7 -25 16 -25 16 25 -6 c53 -13 69 -12 111 8 49 23 52
23 94 26 23 1 27 3 15 11 -11 7 -11 10 -2 10 7 0 10 5 7 10 -4 7 2 9 19 4 16
-4 26 -2 26 5 0 6 9 11 20 11 11 0 20 5 20 10 0 6 3 9 8 8 4 0 18 4 32 10 21
9 22 11 5 11 -11 0 -31 -6 -45 -13z m-140 -67 c12 -9 12 -10 -3 -5 -10 3 -27
1 -38 -4 -12 -7 -19 -7 -19 -1 0 8 12 14 40 20 3 0 12 -4 20 -10z m-205 -59
c-3 -5 -12 -10 -18 -10 -7 0 -6 4 3 10 19 12 23 12 15 0z"/>
<path d="M917 1957 c-27 -7 -46 -15 -42 -18 3 -4 25 -1 48 6 23 7 46 13 50 13
5 0 11 3 15 6 8 8 -15 6 -71 -7z"/>
<path d="M767 1915 c-26 -7 -55 -16 -65 -21 -9 -4 -23 -8 -31 -8 -8 -1 -16 -7
-19 -15 -3 -10 0 -11 9 -5 8 5 19 9 24 9 6 1 17 4 25 7 8 4 39 14 68 23 28 9
52 18 52 21 0 6 -8 4 -63 -11z"/>
<path d="M584 1855 c-17 -13 -16 -14 15 -5 41 11 51 20 25 20 -11 0 -29 -7
-40 -15z"/>
<path d="M418 1853 c6 -2 18 -2 25 0 6 3 1 5 -13 5 -14 0 -19 -2 -12 -5z"/>
<path d="M548 1792 c-32 -9 -58 -19 -58 -24 0 -4 19 -1 41 7 23 8 54 15 70 15
16 0 29 5 29 10 0 13 -12 12 -82 -8z"/>
<path d="M450 1760 c-8 -5 -10 -10 -5 -10 6 0 17 5 25 10 8 5 11 10 5 10 -5 0
-17 -5 -25 -10z"/>
<path d="M368 1733 c-20 -8 -39 -22 -42 -29 -3 -8 -1 -58 4 -112 5 -53 12
-161 16 -240 4 -80 10 -138 15 -130 4 7 5 -13 2 -45 -4 -39 -2 -57 6 -57 6 0
11 5 11 12 0 6 3 8 6 5 4 -4 1 -13 -5 -21 -18 -21 -4 -262 17 -293 9 -15 10
-23 3 -23 -6 0 -11 5 -11 12 0 6 -2 9 -4 7 -2 -2 0 -26 3 -54 l6 -49 18 27
c16 25 17 36 3 184 -8 87 -17 194 -19 237 -2 49 -8 81 -15 84 -7 2 -12 8 -12
13 0 6 5 7 10 4 6 -3 10 4 10 17 0 13 -3 18 -8 12 -4 -7 -8 61 -9 149 0 89 -4
178 -7 199 -6 36 -5 39 23 44 31 7 33 33 2 35 -9 0 -4 6 14 14 41 19 9 17 -37
-2z m9 -29 c-3 -3 -12 -4 -19 -1 -8 3 -5 6 6 6 11 1 17 -2 13 -5z m41 -939
c-3 -3 -9 2 -12 12 -6 14 -5 15 5 6 7 -7 10 -15 7 -18z"/>
<path d="M955 1667 c-100 -24 -130 -37 -113 -50 9 -6 5 -7 -11 -3 -31 6 -82
-4 -75 -15 3 -5 -2 -6 -10 -3 -10 4 -16 1 -16 -7 0 -11 -3 -11 -10 1 -6 9 -10
10 -10 3 0 -6 -8 -14 -17 -16 -10 -3 -2 -5 17 -6 19 0 51 4 70 9 118 30 156
43 165 53 6 7 21 13 35 14 58 4 121 16 126 24 12 20 -61 18 -151 -4z"/>
<path d="M1050 1630 c-14 -4 -53 -16 -87 -26 -34 -10 -59 -22 -56 -27 3 -6 1
-7 -6 -3 -6 4 -34 2 -62 -5 -38 -10 -46 -15 -34 -22 20 -11 115 1 115 15 0 6
9 8 20 5 11 -3 18 -1 14 4 -5 9 13 13 46 11 19 -1 52 17 46 26 -2 4 8 7 22 7
15 0 28 5 30 10 4 13 -17 16 -48 5z"/>
<path d="M733 1543 c-13 -2 -23 -9 -23 -14 0 -13 24 -11 38 3 8 8 12 9 12 1 0
-6 9 -9 21 -6 16 4 17 8 7 14 -14 9 -18 9 -55 2z"/>
<path d="M1090 1510 c0 -5 5 -10 11 -10 5 0 7 5 4 10 -3 6 -8 10 -11 10 -2 0
-4 -4 -4 -10z"/>
<path d="M1130 1430 c0 -5 4 -10 9 -10 6 0 13 5 16 10 3 6 -1 10 -9 10 -9 0
-16 -4 -16 -10z"/>
<path d="M126 1190 c5 -49 31 -140 44 -154 8 -8 -6 64 -18 94 -3 8 -12 35 -19
60 l-12 45 5 -45z"/>
<path d="M850 1191 c0 -5 5 -13 10 -16 6 -3 10 -2 10 4 0 5 -4 13 -10 16 -5 3
-10 2 -10 -4z"/>
</g>
</svg>
